<?xml version="1.0" encoding="utf-8" ?><svg xmlns="http://www.w3.org/2000/svg" xmlns:xlink="http://www.w3.org/1999/xlink" viewBox="0 0 30 30" width="30" height="30"><path fill="#FDEBEA" transform="matrix(1 0 0 1 2.5 3.75)" d="M12.5 0L25 21.25L0 21.25L12.5 0Z"/><path fill="#E5544B" transform="matrix(1 0 0 1 2.5 3.75)" d="M25.9697 20.6796Q26.0461 20.8092 26.0855 20.9544Q26.1252 21.0995 26.125 21.25Q26.1386 21.7216 25.7955 22.0455Q25.4716 22.3886 25 22.375L0 22.375Q-0.1505 22.3752 -0.2956 22.3355Q-0.4408 22.2961 -0.5704 22.2197Q-0.9838 21.9923 -1.089 21.5323Q-1.2205 21.0792 -0.9697 20.6796L11.5303 -0.5704Q11.6029 -0.6941 11.7045 -0.7955Q11.8059 -0.8971 11.9296 -0.9697Q12.3292 -1.2205 12.7823 -1.089Q13.2423 -0.9838 13.4697 -0.5704L25.9697 20.6796ZM12.5 2.2188L1.967 20.125L23.033 20.125L12.5 2.2188Z" fill-rule="evenodd"/><path fill="#E5544B" transform="matrix(1 0 0 1 15 11.25)" d="M1.25 0L1.25 6.25Q1.2651 6.774 0.8839 7.1339Q0.524 7.5151 0 7.5Q-0.524 7.5151 -0.8839 7.1339Q-1.2651 6.774 -1.25 6.25L-1.25 0Q-1.2651 -0.524 -0.8839 -0.8839Q-0.524 -1.2651 0 -1.25Q0.524 -1.2651 0.8839 -0.8839Q1.2651 -0.524 1.25 0Z" fill-rule="evenodd"/><circle fill="#E5544B" transform="matrix(1 0 0 1 13.5 19.75)" cx="1.5" cy="1.5" r="1.5"/></svg>